<svg width="32" height="32" viewBox="0 0 32 32" fill="none" xmlns="http://www.w3.org/2000/svg">
<path d="M4 14.0868C4 13.321 4 12.9381 4.0987 12.5854C4.18614 12.2731 4.32982 11.9793 4.5227 11.7185C4.74045 11.4241 5.04269 11.189 5.64719 10.7189L14.6903 3.68536C15.1587 3.32102 15.3929 3.13886 15.6515 3.06883C15.8797 3.00704 16.1203 3.00704 16.3485 3.06883C16.6071 3.13886 16.8413 3.32103 17.3097 3.68536L26.3528 10.7189C26.9573 11.189 27.2596 11.4241 27.4773 11.7185C27.6702 11.9793 27.8139 12.2731 27.9013 12.5854C28 12.9381 28 13.321 28 14.0868V23.7333C28 25.2268 28 25.9736 27.7094 26.544C27.4537 27.0457 27.0457 27.4537 26.544 27.7094C25.9735 28 25.2268 28 23.7333 28H8.26667C6.77319 28 6.02646 28 5.45603 27.7094C4.95426 27.4537 4.54631 27.0457 4.29065 26.544C4 25.9736 4 25.2268 4 23.7333V14.0868Z" stroke="#A3A3A5" stroke-width="2" stroke-linecap="round" stroke-linejoin="round"/>
</svg>
