<svg width="32" height="32" viewBox="0 0 32 32" fill="none" xmlns="http://www.w3.org/2000/svg">
<path d="M21.3332 4.62368C23.3088 5.60548 24.6665 7.64419 24.6665 10C24.6665 12.3558 23.3088 14.3945 21.3332 15.3763M23.9998 22.3552C26.0151 23.2671 27.8299 24.7533 29.3332 26.6667M2.6665 26.6667C5.26183 23.3634 8.78541 21.3333 12.6665 21.3333C16.5476 21.3333 20.0712 23.3634 22.6665 26.6667M18.6665 10C18.6665 13.3137 15.9802 16 12.6665 16C9.3528 16 6.6665 13.3137 6.6665 10C6.6665 6.68629 9.3528 4 12.6665 4C15.9802 4 18.6665 6.68629 18.6665 10Z" stroke="#A3A3A5" stroke-width="2" stroke-linecap="round" stroke-linejoin="round"/>
</svg>
