<svg width="606" height="1185" viewBox="0 0 606 1185" fill="none" xmlns="http://www.w3.org/2000/svg">
<rect width="606" height="1185" fill="black"/>
<path d="M70 1103.13C70 1101.98 70 1101.41 70.1481 1100.88C70.2792 1100.41 70.4947 1099.97 70.7841 1099.58C71.1107 1099.14 71.564 1098.78 72.4708 1098.08L86.0354 1087.53C86.738 1086.98 87.0894 1086.71 87.4773 1086.6C87.8196 1086.51 88.1804 1086.51 88.5227 1086.6C88.9106 1086.71 89.262 1086.98 89.9646 1087.53L103.529 1098.08C104.436 1098.78 104.889 1099.14 105.216 1099.58C105.505 1099.97 105.721 1100.41 105.852 1100.88C106 1101.41 106 1101.98 106 1103.13V1117.6C106 1119.84 106 1120.96 105.564 1121.82C105.181 1122.57 104.569 1123.18 103.816 1123.56C102.96 1124 101.84 1124 99.6 1124H76.4C74.1598 1124 73.0397 1124 72.184 1123.56C71.4314 1123.18 70.8195 1122.57 70.436 1121.82C70 1120.96 70 1119.84 70 1117.6V1103.13Z" stroke="#52FF00" stroke-width="2" stroke-linecap="round" stroke-linejoin="round"/>
<path d="M71.0568 1150V1141.27H72.1136V1145.16H76.767V1141.27H77.8239V1150H76.767V1146.1H72.1136V1150H71.0568ZM87.3033 1145.64C87.3033 1146.56 87.1371 1147.35 86.8047 1148.02C86.4723 1148.69 86.0163 1149.21 85.4368 1149.57C84.8572 1149.94 84.1953 1150.12 83.451 1150.12C82.7067 1150.12 82.0447 1149.94 81.4652 1149.57C80.8857 1149.21 80.4297 1148.69 80.0973 1148.02C79.7649 1147.35 79.5987 1146.56 79.5987 1145.64C79.5987 1144.72 79.7649 1143.92 80.0973 1143.25C80.4297 1142.58 80.8857 1142.06 81.4652 1141.7C82.0447 1141.34 82.7067 1141.15 83.451 1141.15C84.1953 1141.15 84.8572 1141.34 85.4368 1141.7C86.0163 1142.06 86.4723 1142.58 86.8047 1143.25C87.1371 1143.92 87.3033 1144.72 87.3033 1145.64ZM86.2805 1145.64C86.2805 1144.88 86.1541 1144.24 85.9013 1143.72C85.6513 1143.2 85.3118 1142.81 84.8828 1142.54C84.4567 1142.28 83.9794 1142.14 83.451 1142.14C82.9226 1142.14 82.4439 1142.28 82.0149 1142.54C81.5888 1142.81 81.2493 1143.2 80.9964 1143.72C80.7464 1144.24 80.6214 1144.88 80.6214 1145.64C80.6214 1146.39 80.7464 1147.03 80.9964 1147.55C81.2493 1148.07 81.5888 1148.46 82.0149 1148.73C82.4439 1149 82.9226 1149.13 83.451 1149.13C83.9794 1149.13 84.4567 1149 84.8828 1148.73C85.3118 1148.46 85.6513 1148.07 85.9013 1147.55C86.1541 1147.03 86.2805 1146.39 86.2805 1145.64ZM89.0803 1141.27H90.3416L93.3075 1148.52H93.4098L96.3757 1141.27H97.6371V1150H96.6484V1143.37H96.5632L93.8359 1150H92.8814L90.1541 1143.37H90.0689V1150H89.0803V1141.27ZM99.756 1150V1141.27H105.023V1142.21H100.813V1145.16H104.75V1146.1H100.813V1149.06H105.091V1150H99.756Z" fill="#52FF00"/>
<path d="M297 1096H288.2C287.08 1096 286.52 1096 286.092 1096.22C285.716 1096.41 285.41 1096.72 285.218 1097.09C285 1097.52 285 1098.08 285 1099.2V1120.8C285 1121.92 285 1122.48 285.218 1122.91C285.41 1123.28 285.716 1123.59 286.092 1123.78C286.52 1124 287.08 1124 288.2 1124H297M297 1124H309M297 1124L297 1091.2C297 1090.08 297 1089.52 297.218 1089.09C297.41 1088.72 297.716 1088.41 298.092 1088.22C298.52 1088 299.08 1088 300.2 1088L305.8 1088C306.92 1088 307.48 1088 307.908 1088.22C308.284 1088.41 308.59 1088.72 308.782 1089.09C309 1089.52 309 1090.08 309 1091.2V1124M309 1104H317.8C318.92 1104 319.48 1104 319.908 1104.22C320.284 1104.41 320.59 1104.72 320.782 1105.09C321 1105.52 321 1106.08 321 1107.2V1120.8C321 1121.92 321 1122.48 320.782 1122.91C320.59 1123.28 320.284 1123.59 319.908 1123.78C319.48 1124 318.92 1124 317.8 1124H309" stroke="white" stroke-width="2" stroke-linecap="round" stroke-linejoin="round"/>
<path d="M267.557 1150V1141.27H268.614V1149.06H272.67V1150H267.557ZM276.915 1150.14C276.284 1150.14 275.74 1150 275.283 1149.72C274.828 1149.44 274.477 1149.05 274.23 1148.54C273.986 1148.04 273.864 1147.45 273.864 1146.78C273.864 1146.11 273.986 1145.52 274.23 1145.01C274.477 1144.49 274.821 1144.09 275.261 1143.8C275.705 1143.51 276.222 1143.37 276.812 1143.37C277.153 1143.37 277.49 1143.43 277.822 1143.54C278.155 1143.65 278.457 1143.84 278.73 1144.09C279.003 1144.35 279.22 1144.68 279.382 1145.1C279.544 1145.52 279.625 1146.03 279.625 1146.64V1147.07H274.58V1146.2H278.602C278.602 1145.83 278.528 1145.5 278.381 1145.21C278.236 1144.92 278.028 1144.69 277.759 1144.52C277.491 1144.36 277.176 1144.27 276.812 1144.27C276.412 1144.27 276.065 1144.37 275.773 1144.57C275.483 1144.77 275.26 1145.02 275.104 1145.34C274.947 1145.65 274.869 1145.99 274.869 1146.35V1146.93C274.869 1147.43 274.955 1147.85 275.125 1148.19C275.298 1148.53 275.538 1148.79 275.845 1148.97C276.152 1149.14 276.509 1149.23 276.915 1149.23C277.179 1149.23 277.418 1149.2 277.631 1149.12C277.847 1149.05 278.033 1148.93 278.189 1148.78C278.345 1148.63 278.466 1148.44 278.551 1148.21L279.523 1148.48C279.42 1148.81 279.249 1149.1 279.007 1149.35C278.766 1149.6 278.467 1149.79 278.112 1149.93C277.757 1150.07 277.358 1150.14 276.915 1150.14ZM283.081 1150.15C282.666 1150.15 282.29 1150.08 281.952 1149.92C281.614 1149.76 281.345 1149.53 281.146 1149.23C280.947 1148.93 280.848 1148.57 280.848 1148.14C280.848 1147.77 280.922 1147.46 281.07 1147.23C281.217 1146.99 281.415 1146.81 281.662 1146.68C281.909 1146.54 282.182 1146.44 282.48 1146.38C282.781 1146.31 283.084 1146.26 283.388 1146.22C283.786 1146.16 284.108 1146.13 284.355 1146.1C284.605 1146.07 284.787 1146.03 284.901 1145.96C285.017 1145.89 285.075 1145.78 285.075 1145.62V1145.59C285.075 1145.16 284.96 1144.84 284.73 1144.61C284.503 1144.37 284.158 1144.26 283.695 1144.26C283.214 1144.26 282.838 1144.36 282.565 1144.57C282.293 1144.78 282.101 1145.01 281.99 1145.24L281.036 1144.9C281.206 1144.51 281.433 1144.2 281.717 1143.97C282.004 1143.75 282.317 1143.59 282.655 1143.51C282.996 1143.41 283.331 1143.37 283.661 1143.37C283.871 1143.37 284.112 1143.39 284.385 1143.45C284.661 1143.49 284.926 1143.6 285.182 1143.75C285.44 1143.9 285.655 1144.13 285.825 1144.44C285.996 1144.75 286.081 1145.17 286.081 1145.69V1150H285.075V1149.11H285.024C284.956 1149.26 284.842 1149.41 284.683 1149.57C284.524 1149.73 284.313 1149.87 284.048 1149.98C283.784 1150.1 283.462 1150.15 283.081 1150.15ZM283.234 1149.25C283.632 1149.25 283.967 1149.17 284.24 1149.02C284.516 1148.86 284.723 1148.66 284.862 1148.41C285.004 1148.16 285.075 1147.9 285.075 1147.63V1146.71C285.033 1146.76 284.939 1146.81 284.794 1146.85C284.652 1146.89 284.487 1146.93 284.3 1146.96C284.115 1146.99 283.935 1147.01 283.759 1147.03C283.585 1147.05 283.445 1147.07 283.337 1147.09C283.075 1147.12 282.831 1147.17 282.604 1147.25C282.379 1147.33 282.197 1147.44 282.058 1147.59C281.922 1147.74 281.854 1147.94 281.854 1148.19C281.854 1148.54 281.983 1148.81 282.241 1148.99C282.503 1149.16 282.834 1149.25 283.234 1149.25ZM290.388 1150.14C289.843 1150.14 289.361 1150 288.944 1149.72C288.526 1149.44 288.199 1149.05 287.963 1148.55C287.728 1148.04 287.61 1147.44 287.61 1146.74C287.61 1146.06 287.728 1145.46 287.963 1144.95C288.199 1144.45 288.527 1144.06 288.948 1143.78C289.368 1143.51 289.854 1143.37 290.405 1143.37C290.831 1143.37 291.168 1143.44 291.415 1143.58C291.665 1143.72 291.855 1143.88 291.986 1144.06C292.12 1144.24 292.223 1144.38 292.297 1144.49H292.382V1141.27H293.388V1150H292.417V1148.99H292.297C292.223 1149.11 292.118 1149.26 291.982 1149.45C291.846 1149.62 291.651 1149.79 291.398 1149.93C291.145 1150.07 290.809 1150.14 290.388 1150.14ZM290.525 1149.23C290.928 1149.23 291.269 1149.13 291.547 1148.92C291.826 1148.7 292.037 1148.41 292.182 1148.04C292.327 1147.66 292.4 1147.22 292.4 1146.73C292.4 1146.24 292.328 1145.81 292.186 1145.44C292.044 1145.08 291.834 1144.79 291.556 1144.58C291.277 1144.38 290.934 1144.27 290.525 1144.27C290.098 1144.27 289.743 1144.38 289.459 1144.6C289.178 1144.82 288.966 1145.11 288.824 1145.48C288.685 1145.85 288.615 1146.27 288.615 1146.73C288.615 1147.19 288.686 1147.62 288.828 1148C288.973 1148.37 289.186 1148.68 289.468 1148.9C289.752 1149.12 290.104 1149.23 290.525 1149.23ZM298.114 1150.14C297.483 1150.14 296.939 1150 296.482 1149.72C296.027 1149.44 295.676 1149.05 295.429 1148.54C295.185 1148.04 295.063 1147.45 295.063 1146.78C295.063 1146.11 295.185 1145.52 295.429 1145.01C295.676 1144.49 296.02 1144.09 296.461 1143.8C296.904 1143.51 297.421 1143.37 298.012 1143.37C298.353 1143.37 298.689 1143.43 299.022 1143.54C299.354 1143.65 299.657 1143.84 299.929 1144.09C300.202 1144.35 300.419 1144.68 300.581 1145.1C300.743 1145.52 300.824 1146.03 300.824 1146.64V1147.07H295.779V1146.2H299.801C299.801 1145.83 299.728 1145.5 299.58 1145.21C299.435 1144.92 299.228 1144.69 298.958 1144.52C298.691 1144.36 298.375 1144.27 298.012 1144.27C297.611 1144.27 297.265 1144.37 296.972 1144.57C296.682 1144.77 296.459 1145.02 296.303 1145.34C296.147 1145.65 296.069 1145.99 296.069 1146.35V1146.93C296.069 1147.43 296.154 1147.85 296.324 1148.19C296.498 1148.53 296.738 1148.79 297.044 1148.97C297.351 1149.14 297.708 1149.23 298.114 1149.23C298.378 1149.23 298.617 1149.2 298.83 1149.12C299.046 1149.05 299.232 1148.93 299.388 1148.78C299.544 1148.63 299.665 1148.44 299.75 1148.21L300.722 1148.48C300.62 1148.81 300.448 1149.1 300.206 1149.35C299.965 1149.6 299.667 1149.79 299.311 1149.93C298.956 1150.07 298.557 1150.14 298.114 1150.14ZM302.354 1150V1143.45H303.326V1144.44H303.394C303.513 1144.12 303.729 1143.86 304.042 1143.65C304.354 1143.45 304.706 1143.35 305.098 1143.35C305.172 1143.35 305.265 1143.35 305.375 1143.36C305.486 1143.36 305.57 1143.36 305.627 1143.37V1144.39C305.593 1144.38 305.515 1144.37 305.392 1144.35C305.273 1144.33 305.147 1144.32 305.013 1144.32C304.695 1144.32 304.411 1144.39 304.161 1144.52C303.914 1144.65 303.718 1144.84 303.573 1145.07C303.431 1145.3 303.36 1145.56 303.36 1145.86V1150H302.354ZM306.955 1150V1141.27H310.006C310.614 1141.27 311.116 1141.38 311.511 1141.59C311.906 1141.8 312.2 1142.08 312.393 1142.43C312.586 1142.78 312.683 1143.16 312.683 1143.59C312.683 1143.97 312.616 1144.28 312.482 1144.52C312.352 1144.76 312.178 1144.96 311.962 1145.1C311.749 1145.24 311.518 1145.35 311.268 1145.41V1145.5C311.535 1145.52 311.803 1145.61 312.073 1145.78C312.343 1145.95 312.569 1146.2 312.751 1146.51C312.933 1146.83 313.023 1147.22 313.023 1147.68C313.023 1148.12 312.924 1148.51 312.725 1148.86C312.526 1149.21 312.212 1149.49 311.783 1149.69C311.354 1149.9 310.796 1150 310.109 1150H306.955ZM308.012 1149.06H310.109C310.799 1149.06 311.289 1148.93 311.579 1148.66C311.871 1148.39 312.018 1148.07 312.018 1147.68C312.018 1147.39 311.942 1147.11 311.792 1146.86C311.641 1146.61 311.427 1146.41 311.148 1146.26C310.87 1146.11 310.54 1146.03 310.16 1146.03H308.012V1149.06ZM308.012 1145.11H309.972C310.29 1145.11 310.577 1145.05 310.833 1144.92C311.092 1144.8 311.296 1144.62 311.447 1144.39C311.6 1144.16 311.677 1143.9 311.677 1143.59C311.677 1143.21 311.543 1142.88 311.276 1142.62C311.009 1142.35 310.586 1142.21 310.006 1142.21H308.012V1145.11ZM317.283 1150.14C316.692 1150.14 316.173 1150 315.727 1149.71C315.284 1149.43 314.938 1149.04 314.688 1148.53C314.44 1148.03 314.317 1147.44 314.317 1146.76C314.317 1146.08 314.44 1145.48 314.688 1144.98C314.938 1144.47 315.284 1144.07 315.727 1143.79C316.173 1143.51 316.692 1143.37 317.283 1143.37C317.874 1143.37 318.391 1143.51 318.834 1143.79C319.28 1144.07 319.626 1144.47 319.874 1144.98C320.124 1145.48 320.249 1146.08 320.249 1146.76C320.249 1147.44 320.124 1148.03 319.874 1148.53C319.626 1149.04 319.28 1149.43 318.834 1149.71C318.391 1150 317.874 1150.14 317.283 1150.14ZM317.283 1149.23C317.732 1149.23 318.101 1149.12 318.391 1148.89C318.68 1148.66 318.895 1148.36 319.034 1147.98C319.173 1147.61 319.243 1147.2 319.243 1146.76C319.243 1146.32 319.173 1145.92 319.034 1145.54C318.895 1145.16 318.68 1144.86 318.391 1144.62C318.101 1144.39 317.732 1144.27 317.283 1144.27C316.834 1144.27 316.464 1144.39 316.175 1144.62C315.885 1144.86 315.67 1145.16 315.531 1145.54C315.392 1145.92 315.322 1146.32 315.322 1146.76C315.322 1147.2 315.392 1147.61 315.531 1147.98C315.67 1148.36 315.885 1148.66 316.175 1148.89C316.464 1149.12 316.834 1149.23 317.283 1149.23ZM323.71 1150.15C323.295 1150.15 322.919 1150.08 322.581 1149.92C322.243 1149.76 321.974 1149.53 321.775 1149.23C321.576 1148.93 321.477 1148.57 321.477 1148.14C321.477 1147.77 321.551 1147.46 321.699 1147.23C321.846 1146.99 322.044 1146.81 322.291 1146.68C322.538 1146.54 322.811 1146.44 323.109 1146.38C323.41 1146.31 323.713 1146.26 324.017 1146.22C324.414 1146.16 324.737 1146.13 324.984 1146.1C325.234 1146.07 325.416 1146.03 325.529 1145.96C325.646 1145.89 325.704 1145.78 325.704 1145.62V1145.59C325.704 1145.16 325.589 1144.84 325.359 1144.61C325.132 1144.37 324.787 1144.26 324.324 1144.26C323.843 1144.26 323.467 1144.36 323.194 1144.57C322.922 1144.78 322.73 1145.01 322.619 1145.24L321.664 1144.9C321.835 1144.51 322.062 1144.2 322.346 1143.97C322.633 1143.75 322.946 1143.59 323.284 1143.51C323.625 1143.41 323.96 1143.37 324.289 1143.37C324.5 1143.37 324.741 1143.39 325.014 1143.45C325.289 1143.49 325.555 1143.6 325.811 1143.75C326.069 1143.9 326.284 1144.13 326.454 1144.44C326.625 1144.75 326.71 1145.17 326.71 1145.69V1150H325.704V1149.11H325.653C325.585 1149.26 325.471 1149.41 325.312 1149.57C325.153 1149.73 324.941 1149.87 324.677 1149.98C324.413 1150.1 324.091 1150.15 323.71 1150.15ZM323.863 1149.25C324.261 1149.25 324.596 1149.17 324.869 1149.02C325.145 1148.86 325.352 1148.66 325.491 1148.41C325.633 1148.16 325.704 1147.9 325.704 1147.63V1146.71C325.662 1146.76 325.568 1146.81 325.423 1146.85C325.281 1146.89 325.116 1146.93 324.929 1146.96C324.744 1146.99 324.564 1147.01 324.387 1147.03C324.214 1147.05 324.074 1147.07 323.966 1147.09C323.704 1147.12 323.46 1147.17 323.233 1147.25C323.008 1147.33 322.826 1147.44 322.687 1147.59C322.551 1147.74 322.483 1147.94 322.483 1148.19C322.483 1148.54 322.612 1148.81 322.87 1148.99C323.132 1149.16 323.463 1149.25 323.863 1149.25ZM328.545 1150V1143.45H329.517V1144.44H329.585C329.705 1144.12 329.92 1143.86 330.233 1143.65C330.545 1143.45 330.898 1143.35 331.29 1143.35C331.364 1143.35 331.456 1143.35 331.567 1143.36C331.678 1143.36 331.761 1143.36 331.818 1143.37V1144.39C331.784 1144.38 331.706 1144.37 331.584 1144.35C331.464 1144.33 331.338 1144.32 331.205 1144.32C330.886 1144.32 330.602 1144.39 330.352 1144.52C330.105 1144.65 329.909 1144.84 329.764 1145.07C329.622 1145.3 329.551 1145.56 329.551 1145.86V1150H328.545ZM335.283 1150.14C334.737 1150.14 334.256 1150 333.838 1149.72C333.42 1149.44 333.094 1149.05 332.858 1148.55C332.622 1148.04 332.504 1147.44 332.504 1146.74C332.504 1146.06 332.622 1145.46 332.858 1144.95C333.094 1144.45 333.422 1144.06 333.842 1143.78C334.263 1143.51 334.749 1143.37 335.3 1143.37C335.726 1143.37 336.063 1143.44 336.31 1143.58C336.56 1143.72 336.75 1143.88 336.881 1144.06C337.014 1144.24 337.118 1144.38 337.192 1144.49H337.277V1141.27H338.283V1150H337.311V1148.99H337.192C337.118 1149.11 337.013 1149.26 336.876 1149.45C336.74 1149.62 336.545 1149.79 336.293 1149.93C336.04 1150.07 335.703 1150.14 335.283 1150.14ZM335.419 1149.23C335.822 1149.23 336.163 1149.13 336.442 1148.92C336.72 1148.7 336.932 1148.41 337.077 1148.04C337.222 1147.66 337.294 1147.22 337.294 1146.73C337.294 1146.24 337.223 1145.81 337.081 1145.44C336.939 1145.08 336.729 1144.79 336.45 1144.58C336.172 1144.38 335.828 1144.27 335.419 1144.27C334.993 1144.27 334.638 1144.38 334.354 1144.6C334.072 1144.82 333.861 1145.11 333.719 1145.48C333.58 1145.85 333.51 1146.27 333.51 1146.73C333.51 1147.19 333.581 1147.62 333.723 1148C333.868 1148.37 334.081 1148.68 334.362 1148.9C334.646 1149.12 334.999 1149.23 335.419 1149.23Z" fill="white"/>
<path d="M526 1088.94C528.963 1090.41 531 1093.47 531 1097C531 1100.53 528.963 1103.59 526 1105.06M530 1115.53C533.023 1116.9 535.745 1119.13 538 1122M498 1122C501.893 1117.05 507.178 1114 513 1114C518.822 1114 524.107 1117.05 528 1122M522 1097C522 1101.97 517.971 1106 513 1106C508.029 1106 504 1101.97 504 1097C504 1092.03 508.029 1088 513 1088C517.971 1088 522 1092.03 522 1097Z" stroke="white" stroke-width="2" stroke-linecap="round" stroke-linejoin="round"/>
<path d="M504.614 1141.27V1150H503.557V1141.27H504.614ZM507.602 1146.06V1150H506.596V1143.45H507.568V1144.48H507.653C507.806 1144.14 508.039 1143.88 508.352 1143.68C508.664 1143.47 509.068 1143.37 509.562 1143.37C510.005 1143.37 510.393 1143.46 510.725 1143.64C511.058 1143.82 511.316 1144.09 511.501 1144.46C511.686 1144.82 511.778 1145.28 511.778 1145.84V1150H510.772V1145.91C510.772 1145.39 510.639 1144.99 510.372 1144.71C510.105 1144.42 509.738 1144.27 509.272 1144.27C508.951 1144.27 508.664 1144.34 508.412 1144.48C508.162 1144.62 507.964 1144.82 507.819 1145.09C507.674 1145.36 507.602 1145.68 507.602 1146.06ZM518.734 1143.45L516.313 1150H515.29L512.87 1143.45H513.961L515.768 1148.67H515.836L517.643 1143.45H518.734ZM520.061 1150V1143.45H521.067V1150H520.061ZM520.572 1142.36C520.376 1142.36 520.207 1142.3 520.065 1142.16C519.926 1142.03 519.857 1141.87 519.857 1141.68C519.857 1141.49 519.926 1141.33 520.065 1141.2C520.207 1141.07 520.376 1141 520.572 1141C520.768 1141 520.936 1141.07 521.075 1141.2C521.217 1141.33 521.288 1141.49 521.288 1141.68C521.288 1141.87 521.217 1142.03 521.075 1142.16C520.936 1142.3 520.768 1142.36 520.572 1142.36ZM525.755 1143.45V1144.31H522.363V1143.45H525.755ZM523.352 1141.89H524.358V1148.12C524.358 1148.41 524.399 1148.62 524.481 1148.76C524.566 1148.9 524.674 1149 524.805 1149.05C524.939 1149.09 525.079 1149.11 525.227 1149.11C525.338 1149.11 525.429 1149.11 525.5 1149.1C525.571 1149.08 525.627 1149.07 525.67 1149.06L525.875 1149.97C525.806 1149.99 525.711 1150.02 525.589 1150.04C525.467 1150.07 525.312 1150.09 525.125 1150.09C524.841 1150.09 524.562 1150.02 524.289 1149.9C524.02 1149.78 523.795 1149.59 523.616 1149.34C523.44 1149.09 523.352 1148.78 523.352 1148.4V1141.89ZM529.942 1150.14C529.311 1150.14 528.767 1150 528.31 1149.72C527.855 1149.44 527.505 1149.05 527.257 1148.54C527.013 1148.04 526.891 1147.45 526.891 1146.78C526.891 1146.11 527.013 1145.52 527.257 1145.01C527.505 1144.49 527.848 1144.09 528.289 1143.8C528.732 1143.51 529.249 1143.37 529.84 1143.37C530.181 1143.37 530.517 1143.43 530.85 1143.54C531.182 1143.65 531.485 1143.84 531.757 1144.09C532.03 1144.35 532.248 1144.68 532.409 1145.1C532.571 1145.52 532.652 1146.03 532.652 1146.64V1147.07H527.607V1146.2H531.63C531.63 1145.83 531.556 1145.5 531.408 1145.21C531.263 1144.92 531.056 1144.69 530.786 1144.52C530.519 1144.36 530.203 1144.27 529.84 1144.27C529.439 1144.27 529.093 1144.37 528.8 1144.57C528.51 1144.77 528.287 1145.02 528.131 1145.34C527.975 1145.65 527.897 1145.99 527.897 1146.35V1146.93C527.897 1147.43 527.982 1147.85 528.152 1148.19C528.326 1148.53 528.566 1148.79 528.873 1148.97C529.179 1149.14 529.536 1149.23 529.942 1149.23C530.206 1149.23 530.445 1149.2 530.658 1149.12C530.874 1149.05 531.06 1148.93 531.216 1148.78C531.373 1148.63 531.493 1148.44 531.578 1148.21L532.55 1148.48C532.448 1148.81 532.276 1149.1 532.034 1149.35C531.793 1149.6 531.495 1149.79 531.14 1149.93C530.784 1150.07 530.385 1150.14 529.942 1150.14Z" fill="white"/>
<path d="M24.2784 886.382V881.818H45.7812V886.382H37.7656V908H32.294V886.382H24.2784ZM72.1868 894.909C72.1868 897.764 71.6456 900.193 70.5632 902.196C69.4893 904.199 68.0234 905.729 66.1655 906.786C64.3161 907.834 62.2365 908.358 59.9268 908.358C57.6001 908.358 55.5121 907.83 53.6626 906.773C51.8132 905.716 50.3516 904.186 49.2777 902.183C48.2038 900.18 47.6669 897.756 47.6669 894.909C47.6669 892.054 48.2038 889.625 49.2777 887.622C50.3516 885.619 51.8132 884.094 53.6626 883.045C55.5121 881.989 57.6001 881.46 59.9268 881.46C62.2365 881.46 64.3161 881.989 66.1655 883.045C68.0234 884.094 69.4893 885.619 70.5632 887.622C71.6456 889.625 72.1868 892.054 72.1868 894.909ZM66.5746 894.909C66.5746 893.06 66.2976 891.5 65.7436 890.23C65.1982 888.96 64.4268 887.997 63.4297 887.341C62.4325 886.685 61.2649 886.357 59.9268 886.357C58.5888 886.357 57.4212 886.685 56.424 887.341C55.4268 887.997 54.6513 888.96 54.0973 890.23C53.5518 891.5 53.2791 893.06 53.2791 894.909C53.2791 896.759 53.5518 898.318 54.0973 899.588C54.6513 900.858 55.4268 901.821 56.424 902.477C57.4212 903.134 58.5888 903.462 59.9268 903.462C61.2649 903.462 62.4325 903.134 63.4297 902.477C64.4268 901.821 65.1982 900.858 65.7436 899.588C66.2976 898.318 66.5746 896.759 66.5746 894.909ZM85.5685 908H76.2873V881.818H85.6452C88.2788 881.818 90.5458 882.342 92.4464 883.391C94.3469 884.43 95.8086 885.926 96.8313 887.878C97.8626 889.83 98.3782 892.165 98.3782 894.884C98.3782 897.611 97.8626 899.955 96.8313 901.915C95.8086 903.875 94.3384 905.379 92.4208 906.428C90.5117 907.476 88.2276 908 85.5685 908ZM81.8228 903.257H85.3384C86.9748 903.257 88.3512 902.967 89.4677 902.388C90.5927 901.8 91.4364 900.892 91.9989 899.665C92.57 898.429 92.8555 896.835 92.8555 894.884C92.8555 892.949 92.57 891.368 91.9989 890.141C91.4364 888.913 90.5969 888.01 89.4805 887.43C88.364 886.851 86.9876 886.561 85.3512 886.561H81.8228V903.257ZM126.538 894.909C126.538 897.764 125.997 900.193 124.915 902.196C123.841 904.199 122.375 905.729 120.517 906.786C118.668 907.834 116.588 908.358 114.278 908.358C111.952 908.358 109.864 907.83 108.014 906.773C106.165 905.716 104.703 904.186 103.629 902.183C102.555 900.18 102.018 897.756 102.018 894.909C102.018 892.054 102.555 889.625 103.629 887.622C104.703 885.619 106.165 884.094 108.014 883.045C109.864 881.989 111.952 881.46 114.278 881.46C116.588 881.46 118.668 881.989 120.517 883.045C122.375 884.094 123.841 885.619 124.915 887.622C125.997 889.625 126.538 892.054 126.538 894.909ZM120.926 894.909C120.926 893.06 120.649 891.5 120.095 890.23C119.55 888.96 118.778 887.997 117.781 887.341C116.784 886.685 115.616 886.357 114.278 886.357C112.94 886.357 111.773 886.685 110.776 887.341C109.778 887.997 109.003 888.96 108.449 890.23C107.903 891.5 107.631 893.06 107.631 894.909C107.631 896.759 107.903 898.318 108.449 899.588C109.003 900.858 109.778 901.821 110.776 902.477C111.773 903.134 112.94 903.462 114.278 903.462C115.616 903.462 116.784 903.134 117.781 902.477C118.778 901.821 119.55 900.858 120.095 899.588C120.649 898.318 120.926 896.759 120.926 894.909ZM146.875 893.963L141.889 894.27C141.804 893.844 141.62 893.46 141.339 893.119C141.058 892.77 140.687 892.493 140.227 892.288C139.775 892.075 139.234 891.969 138.603 891.969C137.76 891.969 137.048 892.148 136.468 892.506C135.889 892.855 135.599 893.324 135.599 893.912C135.599 894.381 135.787 894.777 136.162 895.101C136.537 895.425 137.18 895.685 138.092 895.881L141.646 896.597C143.555 896.989 144.978 897.619 145.916 898.489C146.853 899.358 147.322 900.5 147.322 901.915C147.322 903.202 146.943 904.331 146.184 905.303C145.434 906.274 144.403 907.033 143.091 907.578C141.787 908.115 140.282 908.384 138.578 908.384C135.978 908.384 133.907 907.842 132.365 906.76C130.831 905.669 129.931 904.186 129.667 902.311L135.024 902.03C135.186 902.822 135.578 903.428 136.2 903.845C136.822 904.254 137.619 904.459 138.591 904.459C139.545 904.459 140.312 904.276 140.892 903.909C141.48 903.534 141.778 903.053 141.787 902.464C141.778 901.97 141.569 901.565 141.16 901.25C140.751 900.926 140.12 900.679 139.268 900.509L135.868 899.831C133.95 899.447 132.522 898.783 131.585 897.837C130.656 896.891 130.191 895.685 130.191 894.219C130.191 892.957 130.532 891.871 131.214 890.959C131.904 890.047 132.872 889.344 134.116 888.849C135.369 888.355 136.835 888.108 138.514 888.108C140.994 888.108 142.946 888.632 144.369 889.68C145.801 890.729 146.636 892.156 146.875 893.963Z" fill="white"/>
<path d="M473 891V899M469 895H477M483 895C483 900.523 478.523 905 473 905C467.477 905 463 900.523 463 895C463 889.477 467.477 885 473 885C478.523 885 483 889.477 483 895Z" stroke="white" stroke-width="2" stroke-linecap="round" stroke-linejoin="round"/>
<path d="M490.472 902H487.941L492.55 888.909H495.477L500.092 902H497.561L494.065 891.594H493.962L490.472 902ZM490.555 896.867H497.459V898.772H490.555V896.867ZM505.059 902.173C504.288 902.173 503.597 901.974 502.988 901.578C502.379 901.182 501.897 900.607 501.543 899.852C501.19 899.098 501.013 898.182 501.013 897.104C501.013 896.013 501.192 895.092 501.55 894.342C501.912 893.588 502.4 893.019 503.013 892.636C503.627 892.248 504.311 892.054 505.065 892.054C505.641 892.054 506.114 892.152 506.484 892.348C506.855 892.54 507.149 892.772 507.366 893.045C507.584 893.313 507.752 893.567 507.871 893.805H507.967V888.909H510.288V902H508.012V900.453H507.871C507.752 900.692 507.58 900.945 507.354 901.214C507.128 901.478 506.83 901.704 506.459 901.891C506.088 902.079 505.621 902.173 505.059 902.173ZM505.705 900.274C506.195 900.274 506.612 900.142 506.957 899.878C507.303 899.609 507.565 899.237 507.744 898.759C507.923 898.282 508.012 897.726 508.012 897.091C508.012 896.456 507.923 895.904 507.744 895.435C507.569 894.967 507.309 894.602 506.964 894.342C506.623 894.082 506.203 893.952 505.705 893.952C505.189 893.952 504.759 894.087 504.413 894.355C504.068 894.624 503.808 894.994 503.634 895.467C503.459 895.94 503.371 896.482 503.371 897.091C503.371 897.705 503.459 898.252 503.634 898.734C503.813 899.211 504.075 899.588 504.42 899.865C504.769 900.138 505.197 900.274 505.705 900.274ZM516.397 902.173C515.626 902.173 514.935 901.974 514.326 901.578C513.716 901.182 513.235 900.607 512.881 899.852C512.528 899.098 512.351 898.182 512.351 897.104C512.351 896.013 512.53 895.092 512.888 894.342C513.25 893.588 513.738 893.019 514.351 892.636C514.965 892.248 515.649 892.054 516.403 892.054C516.979 892.054 517.452 892.152 517.822 892.348C518.193 892.54 518.487 892.772 518.704 893.045C518.922 893.313 519.09 893.567 519.209 893.805H519.305V888.909H521.626V902H519.35V900.453H519.209C519.09 900.692 518.917 900.945 518.692 901.214C518.466 901.478 518.167 901.704 517.797 901.891C517.426 902.079 516.959 902.173 516.397 902.173ZM517.042 900.274C517.532 900.274 517.95 900.142 518.295 899.878C518.64 899.609 518.903 899.237 519.081 898.759C519.26 898.282 519.35 897.726 519.35 897.091C519.35 896.456 519.26 895.904 519.081 895.435C518.907 894.967 518.647 894.602 518.302 894.342C517.961 894.082 517.541 893.952 517.042 893.952C516.527 893.952 516.096 894.087 515.751 894.355C515.406 894.624 515.146 894.994 514.971 895.467C514.797 895.94 514.709 896.482 514.709 897.091C514.709 897.705 514.797 898.252 514.971 898.734C515.15 899.211 515.412 899.588 515.758 899.865C516.107 900.138 516.535 900.274 517.042 900.274ZM527.763 888.909H530.442L533.644 894.7H533.772L536.974 888.909H539.653L534.891 897.116V902H532.526V897.116L527.763 888.909ZM543.684 902.192C542.726 902.192 541.895 901.981 541.192 901.559C540.488 901.137 539.943 900.547 539.555 899.788C539.172 899.03 538.98 898.143 538.98 897.129C538.98 896.115 539.172 895.227 539.555 894.464C539.943 893.701 540.488 893.109 541.192 892.687C541.895 892.265 542.726 892.054 543.684 892.054C544.643 892.054 545.474 892.265 546.177 892.687C546.881 893.109 547.424 893.701 547.807 894.464C548.195 895.227 548.389 896.115 548.389 897.129C548.389 898.143 548.195 899.03 547.807 899.788C547.424 900.547 546.881 901.137 546.177 901.559C545.474 901.981 544.643 902.192 543.684 902.192ZM543.697 900.338C544.217 900.338 544.652 900.195 545.001 899.91C545.351 899.62 545.611 899.232 545.781 898.746C545.956 898.261 546.043 897.719 546.043 897.123C546.043 896.522 545.956 895.979 545.781 895.493C545.611 895.003 545.351 894.613 545.001 894.323C544.652 894.033 544.217 893.888 543.697 893.888C543.165 893.888 542.721 894.033 542.368 894.323C542.018 894.613 541.756 895.003 541.581 895.493C541.411 895.979 541.326 896.522 541.326 897.123C541.326 897.719 541.411 898.261 541.581 898.746C541.756 899.232 542.018 899.62 542.368 899.91C542.721 900.195 543.165 900.338 543.697 900.338ZM556.611 897.871V892.182H558.925V902H556.681V900.255H556.579C556.357 900.805 555.993 901.254 555.486 901.604C554.983 901.953 554.363 902.128 553.626 902.128C552.982 902.128 552.413 901.985 551.919 901.7C551.429 901.41 551.045 900.99 550.768 900.44C550.491 899.886 550.353 899.217 550.353 898.433V892.182H552.667V898.075C552.667 898.697 552.837 899.192 553.178 899.558C553.519 899.925 553.967 900.108 554.521 900.108C554.862 900.108 555.192 900.025 555.511 899.859C555.831 899.692 556.093 899.445 556.298 899.117C556.506 898.785 556.611 898.369 556.611 897.871ZM561.304 902V892.182H563.548V893.818H563.65C563.829 893.251 564.136 892.815 564.57 892.508C565.009 892.197 565.51 892.041 566.073 892.041C566.2 892.041 566.343 892.048 566.501 892.06C566.663 892.069 566.797 892.084 566.904 892.105V894.234C566.806 894.2 566.65 894.17 566.437 894.144C566.228 894.114 566.026 894.099 565.83 894.099C565.408 894.099 565.029 894.191 564.692 894.374C564.36 894.553 564.097 894.803 563.906 895.122C563.714 895.442 563.618 895.81 563.618 896.228V902H561.304ZM576.201 894.777L574.091 895.007C574.032 894.794 573.927 894.594 573.778 894.406C573.633 894.219 573.437 894.067 573.19 893.952C572.943 893.837 572.64 893.78 572.282 893.78C571.801 893.78 571.396 893.884 571.068 894.093C570.744 894.302 570.584 894.572 570.589 894.905C570.584 895.19 570.689 895.423 570.902 895.602C571.119 895.781 571.477 895.928 571.976 896.043L573.65 896.401C574.579 896.601 575.27 896.918 575.721 897.353C576.177 897.788 576.407 898.357 576.412 899.06C576.407 899.678 576.226 900.223 575.868 900.696C575.515 901.165 575.023 901.531 574.392 901.795C573.761 902.06 573.037 902.192 572.219 902.192C571.017 902.192 570.05 901.94 569.317 901.438C568.584 900.93 568.147 900.225 568.006 899.322L570.263 899.104C570.365 899.548 570.582 899.882 570.915 900.108C571.247 900.334 571.68 900.447 572.212 900.447C572.762 900.447 573.203 900.334 573.535 900.108C573.872 899.882 574.04 899.603 574.04 899.271C574.04 898.989 573.932 898.757 573.714 898.574C573.501 898.391 573.169 898.25 572.717 898.152L571.042 897.8C570.101 897.604 569.404 897.274 568.952 896.81C568.501 896.341 568.277 895.749 568.281 895.033C568.277 894.428 568.441 893.903 568.773 893.46C569.11 893.013 569.577 892.668 570.173 892.425C570.774 892.178 571.466 892.054 572.251 892.054C573.401 892.054 574.307 892.299 574.967 892.789C575.632 893.279 576.043 893.942 576.201 894.777Z" fill="white"/>
<path d="M25.8295 980H23.6136L30.0227 962.545H32.2045L38.6136 980H36.3977L31.1818 965.307H31.0455L25.8295 980ZM26.6477 973.182H35.5795V975.057H26.6477V973.182ZM43.071 962.545V980H41.0597V962.545H43.071ZM48.7663 962.545V980H46.755V962.545H48.7663ZM64.8935 966.909V968.614H58.1094V966.909H64.8935ZM60.0866 963.773H62.098V976.25C62.098 976.818 62.1804 977.244 62.3452 977.528C62.5156 977.807 62.7315 977.994 62.9929 978.091C63.2599 978.182 63.5412 978.227 63.8366 978.227C64.0582 978.227 64.2401 978.216 64.3821 978.193C64.5241 978.165 64.6378 978.142 64.723 978.125L65.1321 979.932C64.9957 979.983 64.8054 980.034 64.5611 980.085C64.3168 980.142 64.0071 980.17 63.6321 980.17C63.0639 980.17 62.5071 980.048 61.9616 979.804C61.4219 979.56 60.973 979.188 60.6151 978.688C60.2628 978.188 60.0866 977.557 60.0866 976.795V963.773ZM71.7713 980.307C70.9418 980.307 70.1889 980.151 69.5128 979.838C68.8366 979.52 68.2997 979.062 67.902 978.466C67.5043 977.864 67.3054 977.136 67.3054 976.284C67.3054 975.534 67.4531 974.926 67.7486 974.46C68.044 973.989 68.4389 973.619 68.9332 973.352C69.4276 973.085 69.973 972.886 70.5696 972.756C71.1719 972.619 71.777 972.511 72.3849 972.432C73.1804 972.33 73.8253 972.253 74.3196 972.202C74.8196 972.145 75.1832 972.051 75.4105 971.92C75.6435 971.79 75.7599 971.562 75.7599 971.239V971.17C75.7599 970.33 75.5298 969.676 75.0696 969.21C74.6151 968.744 73.9247 968.511 72.9986 968.511C72.0384 968.511 71.2855 968.722 70.7401 969.142C70.1946 969.562 69.8111 970.011 69.5895 970.489L67.6804 969.807C68.0213 969.011 68.4759 968.392 69.044 967.949C69.6179 967.5 70.2429 967.187 70.919 967.011C71.6009 966.83 72.2713 966.739 72.9304 966.739C73.3509 966.739 73.8338 966.79 74.3793 966.892C74.9304 966.989 75.4616 967.19 75.973 967.497C76.4901 967.804 76.919 968.267 77.2599 968.886C77.6009 969.506 77.7713 970.335 77.7713 971.375V980H75.7599V978.227H75.6577C75.5213 978.511 75.294 978.815 74.9759 979.139C74.6577 979.463 74.2344 979.739 73.706 979.966C73.1776 980.193 72.5327 980.307 71.7713 980.307ZM72.0781 978.5C72.8736 978.5 73.544 978.344 74.0895 978.031C74.6406 977.719 75.0554 977.315 75.3338 976.821C75.6179 976.327 75.7599 975.807 75.7599 975.261V973.42C75.6747 973.523 75.4872 973.616 75.1974 973.702C74.9134 973.781 74.5838 973.852 74.2088 973.915C73.8395 973.972 73.4787 974.023 73.1264 974.068C72.7798 974.108 72.4986 974.142 72.2827 974.17C71.7599 974.239 71.2713 974.349 70.8168 974.503C70.3679 974.651 70.0043 974.875 69.7259 975.176C69.4531 975.472 69.3168 975.875 69.3168 976.386C69.3168 977.085 69.5753 977.614 70.0923 977.972C70.6151 978.324 71.277 978.5 72.0781 978.5ZM90.7152 969.841L88.9084 970.352C88.7947 970.051 88.6271 969.759 88.4055 969.474C88.1896 969.185 87.8942 968.946 87.5192 968.759C87.1442 968.571 86.6641 968.477 86.0788 968.477C85.2777 968.477 84.6101 968.662 84.076 969.031C83.5476 969.395 83.2834 969.858 83.2834 970.42C83.2834 970.92 83.4652 971.315 83.8288 971.605C84.1925 971.895 84.7607 972.136 85.5334 972.33L87.4766 972.807C88.647 973.091 89.5192 973.526 90.093 974.111C90.6669 974.69 90.9538 975.437 90.9538 976.352C90.9538 977.102 90.7379 977.773 90.3061 978.364C89.88 978.955 89.2834 979.42 88.5163 979.761C87.7493 980.102 86.8572 980.273 85.8402 980.273C84.505 980.273 83.3999 979.983 82.5249 979.403C81.6499 978.824 81.0959 977.977 80.8629 976.864L82.772 976.386C82.9538 977.091 83.2976 977.619 83.8033 977.972C84.3146 978.324 84.9822 978.5 85.8061 978.5C86.7436 978.5 87.4879 978.301 88.0391 977.903C88.5959 977.5 88.8743 977.017 88.8743 976.455C88.8743 976 88.7152 975.619 88.397 975.312C88.0788 975 87.5902 974.767 86.9311 974.614L84.7493 974.102C83.5504 973.818 82.6697 973.378 82.1072 972.781C81.5504 972.179 81.272 971.426 81.272 970.523C81.272 969.784 81.4794 969.131 81.8942 968.562C82.3146 967.994 82.8857 967.548 83.6072 967.224C84.3345 966.901 85.1584 966.739 86.0788 966.739C87.3743 966.739 88.3913 967.023 89.13 967.591C89.8743 968.159 90.4027 968.909 90.7152 969.841ZM95.8565 975.227L95.8224 972.739H96.2315L101.959 966.909H104.447L98.3452 973.08H98.1747L95.8565 975.227ZM93.9815 980V962.545H95.9929V980H93.9815ZM102.3 980L97.1861 973.523L98.6179 972.125L104.857 980H102.3ZM116.309 969.841L114.502 970.352C114.388 970.051 114.221 969.759 113.999 969.474C113.783 969.185 113.488 968.946 113.113 968.759C112.738 968.571 112.258 968.477 111.673 968.477C110.871 968.477 110.204 968.662 109.67 969.031C109.141 969.395 108.877 969.858 108.877 970.42C108.877 970.92 109.059 971.315 109.423 971.605C109.786 971.895 110.354 972.136 111.127 972.33L113.07 972.807C114.241 973.091 115.113 973.526 115.687 974.111C116.261 974.69 116.548 975.437 116.548 976.352C116.548 977.102 116.332 977.773 115.9 978.364C115.474 978.955 114.877 979.42 114.11 979.761C113.343 980.102 112.451 980.273 111.434 980.273C110.099 980.273 108.994 979.983 108.119 979.403C107.244 978.824 106.69 977.977 106.457 976.864L108.366 976.386C108.548 977.091 108.891 977.619 109.397 977.972C109.908 978.324 110.576 978.5 111.4 978.5C112.337 978.5 113.082 978.301 113.633 977.903C114.19 977.5 114.468 977.017 114.468 976.455C114.468 976 114.309 975.619 113.991 975.312C113.673 975 113.184 974.767 112.525 974.614L110.343 974.102C109.144 973.818 108.263 973.378 107.701 972.781C107.144 972.179 106.866 971.426 106.866 970.523C106.866 969.784 107.073 969.131 107.488 968.562C107.908 967.994 108.479 967.548 109.201 967.224C109.928 966.901 110.752 966.739 111.673 966.739C112.968 966.739 113.985 967.023 114.724 967.591C115.468 968.159 115.996 968.909 116.309 969.841ZM130.178 980.307C129.348 980.307 128.595 980.151 127.919 979.838C127.243 979.52 126.706 979.062 126.308 978.466C125.911 977.864 125.712 977.136 125.712 976.284C125.712 975.534 125.859 974.926 126.155 974.46C126.45 973.989 126.845 973.619 127.339 973.352C127.834 973.085 128.379 972.886 128.976 972.756C129.578 972.619 130.183 972.511 130.791 972.432C131.587 972.33 132.232 972.253 132.726 972.202C133.226 972.145 133.589 972.051 133.817 971.92C134.05 971.79 134.166 971.562 134.166 971.239V971.17C134.166 970.33 133.936 969.676 133.476 969.21C133.021 968.744 132.331 968.511 131.405 968.511C130.445 968.511 129.692 968.722 129.146 969.142C128.601 969.562 128.217 970.011 127.996 970.489L126.087 969.807C126.428 969.011 126.882 968.392 127.45 967.949C128.024 967.5 128.649 967.187 129.325 967.011C130.007 966.83 130.678 966.739 131.337 966.739C131.757 966.739 132.24 966.79 132.786 966.892C133.337 966.989 133.868 967.19 134.379 967.497C134.896 967.804 135.325 968.267 135.666 968.886C136.007 969.506 136.178 970.335 136.178 971.375V980H134.166V978.227H134.064C133.928 978.511 133.7 978.815 133.382 979.139C133.064 979.463 132.641 979.739 132.112 979.966C131.584 980.193 130.939 980.307 130.178 980.307ZM130.484 978.5C131.28 978.5 131.95 978.344 132.496 978.031C133.047 977.719 133.462 977.315 133.74 976.821C134.024 976.327 134.166 975.807 134.166 975.261V973.42C134.081 973.523 133.893 973.616 133.604 973.702C133.32 973.781 132.99 973.852 132.615 973.915C132.246 973.972 131.885 974.023 131.533 974.068C131.186 974.108 130.905 974.142 130.689 974.17C130.166 974.239 129.678 974.349 129.223 974.503C128.774 974.651 128.411 974.875 128.132 975.176C127.859 975.472 127.723 975.875 127.723 976.386C127.723 977.085 127.982 977.614 128.499 977.972C129.021 978.324 129.683 978.5 130.484 978.5ZM139.849 980V966.909H141.792V968.886H141.928C142.167 968.239 142.599 967.713 143.224 967.31C143.849 966.906 144.553 966.705 145.337 966.705C145.485 966.705 145.67 966.707 145.891 966.713C146.113 966.719 146.281 966.727 146.394 966.739V968.784C146.326 968.767 146.17 968.741 145.925 968.707C145.687 968.668 145.434 968.648 145.167 968.648C144.531 968.648 143.962 968.781 143.462 969.048C142.968 969.31 142.576 969.673 142.286 970.139C142.002 970.599 141.86 971.125 141.86 971.716V980H139.849ZM153.869 980.273C152.607 980.273 151.519 979.994 150.604 979.438C149.695 978.875 148.994 978.091 148.499 977.085C148.011 976.074 147.766 974.898 147.766 973.557C147.766 972.216 148.011 971.034 148.499 970.011C148.994 968.983 149.681 968.182 150.562 967.608C151.448 967.028 152.482 966.739 153.664 966.739C154.346 966.739 155.019 966.852 155.684 967.08C156.349 967.307 156.954 967.676 157.499 968.188C158.045 968.693 158.479 969.364 158.803 970.199C159.127 971.034 159.289 972.062 159.289 973.284V974.136H149.198V972.398H157.244C157.244 971.659 157.096 971 156.8 970.42C156.511 969.841 156.096 969.384 155.556 969.048C155.022 968.713 154.391 968.545 153.664 968.545C152.863 968.545 152.17 968.744 151.585 969.142C151.005 969.534 150.559 970.045 150.246 970.676C149.934 971.307 149.778 971.983 149.778 972.705V973.864C149.778 974.852 149.948 975.69 150.289 976.378C150.636 977.06 151.116 977.58 151.729 977.938C152.343 978.29 153.056 978.466 153.869 978.466C154.397 978.466 154.874 978.392 155.3 978.244C155.732 978.091 156.104 977.864 156.417 977.562C156.729 977.256 156.971 976.875 157.141 976.42L159.085 976.966C158.88 977.625 158.536 978.205 158.053 978.705C157.57 979.199 156.974 979.585 156.263 979.864C155.553 980.136 154.755 980.273 153.869 980.273ZM174.042 980.273C172.951 980.273 171.988 979.997 171.153 979.446C170.317 978.889 169.664 978.105 169.192 977.094C168.721 976.077 168.485 974.875 168.485 973.489C168.485 972.114 168.721 970.92 169.192 969.909C169.664 968.898 170.32 968.116 171.161 967.565C172.002 967.014 172.974 966.739 174.076 966.739C174.928 966.739 175.602 966.881 176.096 967.165C176.596 967.443 176.977 967.761 177.238 968.119C177.505 968.472 177.712 968.761 177.86 968.989H178.031V962.545H180.042V980H178.099V977.989H177.86C177.712 978.227 177.502 978.528 177.229 978.892C176.957 979.25 176.567 979.571 176.062 979.855C175.556 980.134 174.883 980.273 174.042 980.273ZM174.315 978.466C175.121 978.466 175.803 978.256 176.36 977.835C176.917 977.409 177.34 976.821 177.63 976.071C177.92 975.315 178.065 974.443 178.065 973.455C178.065 972.477 177.923 971.622 177.638 970.889C177.354 970.151 176.934 969.577 176.377 969.168C175.82 968.753 175.133 968.545 174.315 968.545C173.462 968.545 172.752 968.764 172.184 969.202C171.621 969.634 171.198 970.222 170.914 970.966C170.636 971.705 170.496 972.534 170.496 973.455C170.496 974.386 170.638 975.233 170.923 975.994C171.212 976.75 171.638 977.352 172.201 977.801C172.769 978.244 173.474 978.466 174.315 978.466ZM189.323 980.273C188.141 980.273 187.104 979.991 186.212 979.429C185.326 978.866 184.633 978.08 184.133 977.068C183.638 976.057 183.391 974.875 183.391 973.523C183.391 972.159 183.638 970.969 184.133 969.952C184.633 968.935 185.326 968.145 186.212 967.582C187.104 967.02 188.141 966.739 189.323 966.739C190.505 966.739 191.539 967.02 192.425 967.582C193.317 968.145 194.011 968.935 194.505 969.952C195.005 970.969 195.255 972.159 195.255 973.523C195.255 974.875 195.005 976.057 194.505 977.068C194.011 978.08 193.317 978.866 192.425 979.429C191.539 979.991 190.505 980.273 189.323 980.273ZM189.323 978.466C190.221 978.466 190.96 978.236 191.539 977.776C192.119 977.315 192.548 976.71 192.826 975.96C193.104 975.21 193.244 974.398 193.244 973.523C193.244 972.648 193.104 971.832 192.826 971.077C192.548 970.321 192.119 969.71 191.539 969.244C190.96 968.778 190.221 968.545 189.323 968.545C188.425 968.545 187.687 968.778 187.107 969.244C186.528 969.71 186.099 970.321 185.82 971.077C185.542 971.832 185.403 972.648 185.403 973.523C185.403 974.398 185.542 975.21 185.82 975.96C186.099 976.71 186.528 977.315 187.107 977.776C187.687 978.236 188.425 978.466 189.323 978.466ZM200.337 972.125V980H198.325V966.909H200.268V968.955H200.439C200.746 968.29 201.212 967.756 201.837 967.352C202.462 966.943 203.268 966.739 204.257 966.739C205.143 966.739 205.919 966.92 206.584 967.284C207.249 967.642 207.766 968.188 208.135 968.92C208.504 969.648 208.689 970.568 208.689 971.682V980H206.678V971.818C206.678 970.79 206.411 969.989 205.876 969.415C205.342 968.835 204.609 968.545 203.678 968.545C203.036 968.545 202.462 968.685 201.956 968.963C201.456 969.241 201.061 969.648 200.771 970.182C200.482 970.716 200.337 971.364 200.337 972.125ZM217.853 980.273C216.592 980.273 215.504 979.994 214.589 979.438C213.68 978.875 212.978 978.091 212.484 977.085C211.995 976.074 211.751 974.898 211.751 973.557C211.751 972.216 211.995 971.034 212.484 970.011C212.978 968.983 213.665 968.182 214.546 967.608C215.433 967.028 216.467 966.739 217.648 966.739C218.33 966.739 219.004 966.852 219.668 967.08C220.333 967.307 220.938 967.676 221.484 968.188C222.029 968.693 222.464 969.364 222.788 970.199C223.112 971.034 223.273 972.062 223.273 973.284V974.136H213.183V972.398H221.228C221.228 971.659 221.08 971 220.785 970.42C220.495 969.841 220.08 969.384 219.54 969.048C219.006 968.713 218.376 968.545 217.648 968.545C216.847 968.545 216.154 968.744 215.569 969.142C214.989 969.534 214.543 970.045 214.231 970.676C213.918 971.307 213.762 971.983 213.762 972.705V973.864C213.762 974.852 213.933 975.69 214.273 976.378C214.62 977.06 215.1 977.58 215.714 977.938C216.327 978.29 217.04 978.466 217.853 978.466C218.381 978.466 218.859 978.392 219.285 978.244C219.717 978.091 220.089 977.864 220.401 977.562C220.714 977.256 220.955 976.875 221.126 976.42L223.069 976.966C222.864 977.625 222.521 978.205 222.038 978.705C221.555 979.199 220.958 979.585 220.248 979.864C219.538 980.136 218.739 980.273 217.853 980.273ZM238.913 966.909V968.614H231.856V966.909H238.913ZM233.969 980V965.102C233.969 964.352 234.146 963.727 234.498 963.227C234.85 962.727 235.308 962.352 235.87 962.102C236.433 961.852 237.026 961.727 237.651 961.727C238.146 961.727 238.549 961.767 238.862 961.847C239.174 961.926 239.407 962 239.56 962.068L238.981 963.807C238.879 963.773 238.737 963.73 238.555 963.679C238.379 963.628 238.146 963.602 237.856 963.602C237.191 963.602 236.711 963.77 236.415 964.105C236.126 964.44 235.981 964.932 235.981 965.58V980H233.969ZM246.511 980.273C245.329 980.273 244.292 979.991 243.4 979.429C242.513 978.866 241.82 978.08 241.32 977.068C240.826 976.057 240.579 974.875 240.579 973.523C240.579 972.159 240.826 970.969 241.32 969.952C241.82 968.935 242.513 968.145 243.4 967.582C244.292 967.02 245.329 966.739 246.511 966.739C247.692 966.739 248.727 967.02 249.613 967.582C250.505 968.145 251.198 968.935 251.692 969.952C252.192 970.969 252.442 972.159 252.442 973.523C252.442 974.875 252.192 976.057 251.692 977.068C251.198 978.08 250.505 978.866 249.613 979.429C248.727 979.991 247.692 980.273 246.511 980.273ZM246.511 978.466C247.408 978.466 248.147 978.236 248.727 977.776C249.306 977.315 249.735 976.71 250.013 975.96C250.292 975.21 250.431 974.398 250.431 973.523C250.431 972.648 250.292 971.832 250.013 971.077C249.735 970.321 249.306 969.71 248.727 969.244C248.147 968.778 247.408 968.545 246.511 968.545C245.613 968.545 244.874 968.778 244.295 969.244C243.715 969.71 243.286 970.321 243.008 971.077C242.729 971.832 242.59 972.648 242.59 973.523C242.59 974.398 242.729 975.21 243.008 975.96C243.286 976.71 243.715 977.315 244.295 977.776C244.874 978.236 245.613 978.466 246.511 978.466ZM255.513 980V966.909H257.456V968.886H257.592C257.831 968.239 258.263 967.713 258.888 967.31C259.513 966.906 260.217 966.705 261.001 966.705C261.149 966.705 261.334 966.707 261.555 966.713C261.777 966.719 261.945 966.727 262.058 966.739V968.784C261.99 968.767 261.834 968.741 261.589 968.707C261.351 968.668 261.098 968.648 260.831 968.648C260.195 968.648 259.626 968.781 259.126 969.048C258.632 969.31 258.24 969.673 257.95 970.139C257.666 970.599 257.524 971.125 257.524 971.716V980H255.513ZM276.886 966.909V968.614H270.102V966.909H276.886ZM272.079 963.773H274.09V976.25C274.09 976.818 274.173 977.244 274.337 977.528C274.508 977.807 274.724 977.994 274.985 978.091C275.252 978.182 275.533 978.227 275.829 978.227C276.05 978.227 276.232 978.216 276.374 978.193C276.516 978.165 276.63 978.142 276.715 978.125L277.124 979.932C276.988 979.983 276.798 980.034 276.553 980.085C276.309 980.142 275.999 980.17 275.624 980.17C275.056 980.17 274.499 980.048 273.954 979.804C273.414 979.56 272.965 979.188 272.607 978.688C272.255 978.188 272.079 977.557 272.079 976.795V963.773ZM285.089 980.273C283.907 980.273 282.87 979.991 281.978 979.429C281.092 978.866 280.398 978.08 279.898 977.068C279.404 976.057 279.157 974.875 279.157 973.523C279.157 972.159 279.404 970.969 279.898 969.952C280.398 968.935 281.092 968.145 281.978 967.582C282.87 967.02 283.907 966.739 285.089 966.739C286.271 966.739 287.305 967.02 288.191 967.582C289.083 968.145 289.776 968.935 290.271 969.952C290.771 970.969 291.021 972.159 291.021 973.523C291.021 974.875 290.771 976.057 290.271 977.068C289.776 978.08 289.083 978.866 288.191 979.429C287.305 979.991 286.271 980.273 285.089 980.273ZM285.089 978.466C285.987 978.466 286.725 978.236 287.305 977.776C287.884 977.315 288.313 976.71 288.592 975.96C288.87 975.21 289.009 974.398 289.009 973.523C289.009 972.648 288.87 971.832 288.592 971.077C288.313 970.321 287.884 969.71 287.305 969.244C286.725 968.778 285.987 968.545 285.089 968.545C284.191 968.545 283.452 968.778 282.873 969.244C282.293 969.71 281.864 970.321 281.586 971.077C281.308 971.832 281.168 972.648 281.168 973.523C281.168 974.398 281.308 975.21 281.586 975.96C281.864 976.71 282.293 977.315 282.873 977.776C283.452 978.236 284.191 978.466 285.089 978.466ZM299.034 980.273C297.943 980.273 296.98 979.997 296.145 979.446C295.31 978.889 294.656 978.105 294.185 977.094C293.713 976.077 293.477 974.875 293.477 973.489C293.477 972.114 293.713 970.92 294.185 969.909C294.656 968.898 295.313 968.116 296.153 967.565C296.994 967.014 297.966 966.739 299.068 966.739C299.92 966.739 300.594 966.881 301.088 967.165C301.588 967.443 301.969 967.761 302.23 968.119C302.497 968.472 302.705 968.761 302.852 968.989H303.023V962.545H305.034V980H303.091V977.989H302.852C302.705 978.227 302.494 978.528 302.222 978.892C301.949 979.25 301.56 979.571 301.054 979.855C300.548 980.134 299.875 980.273 299.034 980.273ZM299.307 978.466C300.114 978.466 300.795 978.256 301.352 977.835C301.909 977.409 302.332 976.821 302.622 976.071C302.912 975.315 303.057 974.443 303.057 973.455C303.057 972.477 302.915 971.622 302.631 970.889C302.347 970.151 301.926 969.577 301.369 969.168C300.813 968.753 300.125 968.545 299.307 968.545C298.455 968.545 297.744 968.764 297.176 969.202C296.614 969.634 296.19 970.222 295.906 970.966C295.628 971.705 295.489 972.534 295.489 973.455C295.489 974.386 295.631 975.233 295.915 975.994C296.205 976.75 296.631 977.352 297.193 977.801C297.761 978.244 298.466 978.466 299.307 978.466ZM312.849 980.307C312.02 980.307 311.267 980.151 310.591 979.838C309.915 979.52 309.378 979.062 308.98 978.466C308.582 977.864 308.384 977.136 308.384 976.284C308.384 975.534 308.531 974.926 308.827 974.46C309.122 973.989 309.517 973.619 310.011 973.352C310.506 973.085 311.051 972.886 311.648 972.756C312.25 972.619 312.855 972.511 313.463 972.432C314.259 972.33 314.903 972.253 315.398 972.202C315.898 972.145 316.261 972.051 316.489 971.92C316.722 971.79 316.838 971.562 316.838 971.239V971.17C316.838 970.33 316.608 969.676 316.148 969.21C315.693 968.744 315.003 968.511 314.077 968.511C313.116 968.511 312.364 968.722 311.818 969.142C311.273 969.562 310.889 970.011 310.668 970.489L308.759 969.807C309.099 969.011 309.554 968.392 310.122 967.949C310.696 967.5 311.321 967.187 311.997 967.011C312.679 966.83 313.349 966.739 314.009 966.739C314.429 966.739 314.912 966.79 315.457 966.892C316.009 966.989 316.54 967.19 317.051 967.497C317.568 967.804 317.997 968.267 318.338 968.886C318.679 969.506 318.849 970.335 318.849 971.375V980H316.838V978.227H316.736C316.599 978.511 316.372 978.815 316.054 979.139C315.736 979.463 315.313 979.739 314.784 979.966C314.256 980.193 313.611 980.307 312.849 980.307ZM313.156 978.5C313.952 978.5 314.622 978.344 315.168 978.031C315.719 977.719 316.134 977.315 316.412 976.821C316.696 976.327 316.838 975.807 316.838 975.261V973.42C316.753 973.523 316.565 973.616 316.276 973.702C315.991 973.781 315.662 973.852 315.287 973.915C314.918 973.972 314.557 974.023 314.205 974.068C313.858 974.108 313.577 974.142 313.361 974.17C312.838 974.239 312.349 974.349 311.895 974.503C311.446 974.651 311.082 974.875 310.804 975.176C310.531 975.472 310.395 975.875 310.395 976.386C310.395 977.085 310.653 977.614 311.17 977.972C311.693 978.324 312.355 978.5 313.156 978.5ZM323.347 984.909C323.006 984.909 322.702 984.881 322.435 984.824C322.168 984.773 321.984 984.722 321.881 984.67L322.393 982.898C322.881 983.023 323.313 983.068 323.688 983.034C324.063 983 324.396 982.832 324.685 982.531C324.981 982.236 325.251 981.756 325.495 981.091L325.87 980.068L321.029 966.909H323.211L326.825 977.341H326.961L330.575 966.909H332.756L327.2 981.909C326.95 982.585 326.64 983.145 326.271 983.588C325.901 984.037 325.472 984.369 324.984 984.585C324.501 984.801 323.955 984.909 323.347 984.909ZM336.057 980.136C335.636 980.136 335.276 979.986 334.974 979.685C334.673 979.384 334.523 979.023 334.523 978.602C334.523 978.182 334.673 977.821 334.974 977.52C335.276 977.219 335.636 977.068 336.057 977.068C336.477 977.068 336.838 977.219 337.139 977.52C337.44 977.821 337.591 978.182 337.591 978.602C337.591 978.881 337.52 979.136 337.378 979.369C337.241 979.602 337.057 979.79 336.824 979.932C336.597 980.068 336.341 980.136 336.057 980.136ZM362.268 968H360.155C360.03 967.392 359.811 966.858 359.499 966.398C359.192 965.938 358.817 965.551 358.374 965.239C357.936 964.92 357.45 964.682 356.916 964.523C356.382 964.364 355.825 964.284 355.246 964.284C354.189 964.284 353.232 964.551 352.374 965.085C351.521 965.619 350.842 966.406 350.337 967.446C349.837 968.486 349.587 969.761 349.587 971.273C349.587 972.784 349.837 974.06 350.337 975.099C350.842 976.139 351.521 976.926 352.374 977.46C353.232 977.994 354.189 978.261 355.246 978.261C355.825 978.261 356.382 978.182 356.916 978.023C357.45 977.864 357.936 977.628 358.374 977.315C358.817 976.997 359.192 976.608 359.499 976.148C359.811 975.682 360.03 975.148 360.155 974.545H362.268C362.109 975.437 361.82 976.236 361.399 976.94C360.979 977.645 360.456 978.244 359.831 978.739C359.206 979.227 358.504 979.599 357.726 979.855C356.953 980.111 356.126 980.239 355.246 980.239C353.757 980.239 352.433 979.875 351.274 979.148C350.115 978.42 349.203 977.386 348.538 976.045C347.874 974.705 347.541 973.114 347.541 971.273C347.541 969.432 347.874 967.841 348.538 966.5C349.203 965.159 350.115 964.125 351.274 963.398C352.433 962.67 353.757 962.307 355.246 962.307C356.126 962.307 356.953 962.435 357.726 962.69C358.504 962.946 359.206 963.321 359.831 963.815C360.456 964.304 360.979 964.901 361.399 965.605C361.82 966.304 362.109 967.102 362.268 968ZM370.729 980.273C369.548 980.273 368.511 979.991 367.619 979.429C366.732 978.866 366.039 978.08 365.539 977.068C365.045 976.057 364.798 974.875 364.798 973.523C364.798 972.159 365.045 970.969 365.539 969.952C366.039 968.935 366.732 968.145 367.619 967.582C368.511 967.02 369.548 966.739 370.729 966.739C371.911 966.739 372.945 967.02 373.832 967.582C374.724 968.145 375.417 968.935 375.911 969.952C376.411 970.969 376.661 972.159 376.661 973.523C376.661 974.875 376.411 976.057 375.911 977.068C375.417 978.08 374.724 978.866 373.832 979.429C372.945 979.991 371.911 980.273 370.729 980.273ZM370.729 978.466C371.627 978.466 372.366 978.236 372.945 977.776C373.525 977.315 373.954 976.71 374.232 975.96C374.511 975.21 374.65 974.398 374.65 973.523C374.65 972.648 374.511 971.832 374.232 971.077C373.954 970.321 373.525 969.71 372.945 969.244C372.366 968.778 371.627 968.545 370.729 968.545C369.832 968.545 369.093 968.778 368.513 969.244C367.934 969.71 367.505 970.321 367.227 971.077C366.948 971.832 366.809 972.648 366.809 973.523C366.809 974.398 366.948 975.21 367.227 975.96C367.505 976.71 367.934 977.315 368.513 977.776C369.093 978.236 369.832 978.466 370.729 978.466ZM379.732 980V966.909H381.675V968.955H381.845C382.118 968.256 382.558 967.713 383.166 967.327C383.774 966.935 384.504 966.739 385.357 966.739C386.22 966.739 386.939 966.935 387.513 967.327C388.092 967.713 388.544 968.256 388.868 968.955H389.004C389.339 968.278 389.842 967.741 390.513 967.344C391.183 966.94 391.987 966.739 392.925 966.739C394.095 966.739 395.053 967.105 395.797 967.838C396.541 968.565 396.913 969.699 396.913 971.239V980H394.902V971.239C394.902 970.273 394.638 969.582 394.109 969.168C393.581 968.753 392.959 968.545 392.243 968.545C391.322 968.545 390.609 968.824 390.104 969.381C389.598 969.932 389.345 970.631 389.345 971.477V980H387.3V971.034C387.3 970.29 387.058 969.69 386.575 969.236C386.092 968.776 385.47 968.545 384.709 968.545C384.186 968.545 383.697 968.685 383.243 968.963C382.794 969.241 382.43 969.628 382.152 970.122C381.879 970.611 381.743 971.176 381.743 971.818V980H379.732ZM406.08 980.273C404.818 980.273 403.73 979.994 402.815 979.438C401.906 978.875 401.205 978.091 400.71 977.085C400.222 976.074 399.977 974.898 399.977 973.557C399.977 972.216 400.222 971.034 400.71 970.011C401.205 968.983 401.892 968.182 402.773 967.608C403.659 967.028 404.693 966.739 405.875 966.739C406.557 966.739 407.23 966.852 407.895 967.08C408.56 967.307 409.165 967.676 409.71 968.188C410.256 968.693 410.69 969.364 411.014 970.199C411.338 971.034 411.5 972.062 411.5 973.284V974.136H401.409V972.398H409.455C409.455 971.659 409.307 971 409.011 970.42C408.722 969.841 408.307 969.384 407.767 969.048C407.233 968.713 406.602 968.545 405.875 968.545C405.074 968.545 404.381 968.744 403.795 969.142C403.216 969.534 402.77 970.045 402.457 970.676C402.145 971.307 401.989 971.983 401.989 972.705V973.864C401.989 974.852 402.159 975.69 402.5 976.378C402.847 977.06 403.327 977.58 403.94 977.938C404.554 978.29 405.267 978.466 406.08 978.466C406.608 978.466 407.085 978.392 407.511 978.244C407.943 978.091 408.315 977.864 408.628 977.562C408.94 977.256 409.182 976.875 409.352 976.42L411.295 976.966C411.091 977.625 410.747 978.205 410.264 978.705C409.781 979.199 409.185 979.585 408.474 979.864C407.764 980.136 406.966 980.273 406.08 980.273ZM421.582 980V962.545H423.594V968.989H423.764C423.912 968.761 424.116 968.472 424.378 968.119C424.645 967.761 425.026 967.443 425.52 967.165C426.02 966.881 426.696 966.739 427.548 966.739C428.651 966.739 429.622 967.014 430.463 967.565C431.304 968.116 431.96 968.898 432.432 969.909C432.903 970.92 433.139 972.114 433.139 973.489C433.139 974.875 432.903 976.077 432.432 977.094C431.96 978.105 431.307 978.889 430.472 979.446C429.636 979.997 428.673 980.273 427.582 980.273C426.741 980.273 426.068 980.134 425.562 979.855C425.057 979.571 424.668 979.25 424.395 978.892C424.122 978.528 423.912 978.227 423.764 977.989H423.526V980H421.582ZM423.56 973.455C423.56 974.443 423.705 975.315 423.994 976.071C424.284 976.821 424.707 977.409 425.264 977.835C425.821 978.256 426.503 978.466 427.31 978.466C428.151 978.466 428.852 978.244 429.415 977.801C429.983 977.352 430.409 976.75 430.693 975.994C430.983 975.233 431.128 974.386 431.128 973.455C431.128 972.534 430.986 971.705 430.702 970.966C430.423 970.222 430 969.634 429.432 969.202C428.869 968.764 428.162 968.545 427.31 968.545C426.491 968.545 425.804 968.753 425.247 969.168C424.69 969.577 424.27 970.151 423.986 970.889C423.702 971.622 423.56 972.477 423.56 973.455ZM440.068 980.307C439.239 980.307 438.486 980.151 437.81 979.838C437.134 979.52 436.597 979.062 436.199 978.466C435.801 977.864 435.602 977.136 435.602 976.284C435.602 975.534 435.75 974.926 436.045 974.46C436.341 973.989 436.736 973.619 437.23 973.352C437.724 973.085 438.27 972.886 438.866 972.756C439.469 972.619 440.074 972.511 440.682 972.432C441.477 972.33 442.122 972.253 442.616 972.202C443.116 972.145 443.48 972.051 443.707 971.92C443.94 971.79 444.057 971.562 444.057 971.239V971.17C444.057 970.33 443.827 969.676 443.366 969.21C442.912 968.744 442.222 968.511 441.295 968.511C440.335 968.511 439.582 968.722 439.037 969.142C438.491 969.562 438.108 970.011 437.886 970.489L435.977 969.807C436.318 969.011 436.773 968.392 437.341 967.949C437.915 967.5 438.54 967.187 439.216 967.011C439.898 966.83 440.568 966.739 441.227 966.739C441.648 966.739 442.131 966.79 442.676 966.892C443.227 966.989 443.759 967.19 444.27 967.497C444.787 967.804 445.216 968.267 445.557 968.886C445.898 969.506 446.068 970.335 446.068 971.375V980H444.057V978.227H443.955C443.818 978.511 443.591 978.815 443.273 979.139C442.955 979.463 442.531 979.739 442.003 979.966C441.474 980.193 440.83 980.307 440.068 980.307ZM440.375 978.5C441.17 978.5 441.841 978.344 442.386 978.031C442.938 977.719 443.352 977.315 443.631 976.821C443.915 976.327 444.057 975.807 444.057 975.261V973.42C443.972 973.523 443.784 973.616 443.494 973.702C443.21 973.781 442.881 973.852 442.506 973.915C442.136 973.972 441.776 974.023 441.423 974.068C441.077 974.108 440.795 974.142 440.58 974.17C440.057 974.239 439.568 974.349 439.114 974.503C438.665 974.651 438.301 974.875 438.023 975.176C437.75 975.472 437.614 975.875 437.614 976.386C437.614 977.085 437.872 977.614 438.389 977.972C438.912 978.324 439.574 978.5 440.375 978.5ZM455.058 980.273C453.83 980.273 452.773 979.983 451.887 979.403C451.001 978.824 450.319 978.026 449.842 977.009C449.364 975.991 449.126 974.83 449.126 973.523C449.126 972.193 449.37 971.02 449.859 970.003C450.353 968.98 451.04 968.182 451.921 967.608C452.808 967.028 453.842 966.739 455.023 966.739C455.944 966.739 456.773 966.909 457.512 967.25C458.251 967.591 458.856 968.068 459.327 968.682C459.799 969.295 460.092 970.011 460.205 970.83H458.194C458.04 970.233 457.7 969.705 457.171 969.244C456.648 968.778 455.944 968.545 455.058 968.545C454.273 968.545 453.586 968.75 452.995 969.159C452.41 969.562 451.952 970.134 451.623 970.872C451.299 971.605 451.137 972.466 451.137 973.455C451.137 974.466 451.296 975.347 451.614 976.097C451.938 976.847 452.393 977.429 452.978 977.844C453.569 978.259 454.262 978.466 455.058 978.466C455.58 978.466 456.055 978.375 456.481 978.193C456.907 978.011 457.268 977.75 457.563 977.409C457.859 977.068 458.069 976.659 458.194 976.182H460.205C460.092 976.955 459.81 977.651 459.362 978.27C458.918 978.884 458.33 979.372 457.597 979.736C456.87 980.094 456.023 980.273 455.058 980.273ZM465.021 975.227L464.987 972.739H465.396L471.123 966.909H473.612L467.509 973.08H467.339L465.021 975.227ZM463.146 980V962.545H465.157V980H463.146ZM471.464 980L466.35 973.523L467.782 972.125L474.021 980H471.464ZM30.5341 995.909V997.614H23.75V995.909H30.5341ZM25.7273 992.773H27.7386V1005.25C27.7386 1005.82 27.821 1006.24 27.9858 1006.53C28.1563 1006.81 28.3722 1006.99 28.6335 1007.09C28.9006 1007.18 29.1818 1007.23 29.4773 1007.23C29.6989 1007.23 29.8807 1007.22 30.0227 1007.19C30.1648 1007.16 30.2784 1007.14 30.3636 1007.12L30.7727 1008.93C30.6364 1008.98 30.446 1009.03 30.2017 1009.09C29.9574 1009.14 29.6477 1009.17 29.2727 1009.17C28.7045 1009.17 28.1477 1009.05 27.6023 1008.8C27.0625 1008.56 26.6136 1008.19 26.2557 1007.69C25.9034 1007.19 25.7273 1006.56 25.7273 1005.8V992.773ZM38.7372 1009.27C37.5554 1009.27 36.5185 1008.99 35.6264 1008.43C34.7401 1007.87 34.0469 1007.08 33.5469 1006.07C33.0526 1005.06 32.8054 1003.87 32.8054 1002.52C32.8054 1001.16 33.0526 999.969 33.5469 998.952C34.0469 997.935 34.7401 997.145 35.6264 996.582C36.5185 996.02 37.5554 995.739 38.7372 995.739C39.919 995.739 40.9531 996.02 41.8395 996.582C42.7315 997.145 43.4247 997.935 43.919 998.952C44.419 999.969 44.669 1001.16 44.669 1002.52C44.669 1003.87 44.419 1005.06 43.919 1006.07C43.4247 1007.08 42.7315 1007.87 41.8395 1008.43C40.9531 1008.99 39.919 1009.27 38.7372 1009.27ZM38.7372 1007.47C39.6349 1007.47 40.3736 1007.24 40.9531 1006.78C41.5327 1006.32 41.9616 1005.71 42.2401 1004.96C42.5185 1004.21 42.6577 1003.4 42.6577 1002.52C42.6577 1001.65 42.5185 1000.83 42.2401 1000.08C41.9616 999.321 41.5327 998.71 40.9531 998.244C40.3736 997.778 39.6349 997.545 38.7372 997.545C37.8395 997.545 37.1009 997.778 36.5213 998.244C35.9418 998.71 35.5128 999.321 35.2344 1000.08C34.956 1000.83 34.8168 1001.65 34.8168 1002.52C34.8168 1003.4 34.956 1004.21 35.2344 1004.96C35.5128 1005.71 35.9418 1006.32 36.5213 1006.78C37.1009 1007.24 37.8395 1007.47 38.7372 1007.47ZM47.7393 1009V995.909H49.6825V997.955H49.853C50.1257 997.256 50.5661 996.713 51.174 996.327C51.782 995.935 52.5121 995.739 53.3643 995.739C54.228 995.739 54.9467 995.935 55.5206 996.327C56.1001 996.713 56.5518 997.256 56.8757 997.955H57.0121C57.3473 997.278 57.8501 996.741 58.5206 996.344C59.1911 995.94 59.995 995.739 60.9325 995.739C62.103 995.739 63.0604 996.105 63.8047 996.838C64.549 997.565 64.9212 998.699 64.9212 1000.24V1009H62.9098V1000.24C62.9098 999.273 62.6456 998.582 62.1172 998.168C61.5888 997.753 60.9666 997.545 60.2507 997.545C59.3303 997.545 58.6172 997.824 58.1115 998.381C57.6058 998.932 57.353 999.631 57.353 1000.48V1009H55.3075V1000.03C55.3075 999.29 55.0661 998.69 54.5831 998.236C54.1001 997.776 53.478 997.545 52.7166 997.545C52.1939 997.545 51.7053 997.685 51.2507 997.963C50.8018 998.241 50.4382 998.628 50.1598 999.122C49.8871 999.611 49.7507 1000.18 49.7507 1000.82V1009H47.7393ZM73.9169 1009.27C72.7351 1009.27 71.6982 1008.99 70.8061 1008.43C69.9197 1007.87 69.2266 1007.08 68.7266 1006.07C68.2322 1005.06 67.9851 1003.87 67.9851 1002.52C67.9851 1001.16 68.2322 999.969 68.7266 998.952C69.2266 997.935 69.9197 997.145 70.8061 996.582C71.6982 996.02 72.7351 995.739 73.9169 995.739C75.0987 995.739 76.1328 996.02 77.0192 996.582C77.9112 997.145 78.6044 997.935 79.0987 998.952C79.5987 999.969 79.8487 1001.16 79.8487 1002.52C79.8487 1003.87 79.5987 1005.06 79.0987 1006.07C78.6044 1007.08 77.9112 1007.87 77.0192 1008.43C76.1328 1008.99 75.0987 1009.27 73.9169 1009.27ZM73.9169 1007.47C74.8146 1007.47 75.5533 1007.24 76.1328 1006.78C76.7124 1006.32 77.1413 1005.71 77.4197 1004.96C77.6982 1004.21 77.8374 1003.4 77.8374 1002.52C77.8374 1001.65 77.6982 1000.83 77.4197 1000.08C77.1413 999.321 76.7124 998.71 76.1328 998.244C75.5533 997.778 74.8146 997.545 73.9169 997.545C73.0192 997.545 72.2805 997.778 71.701 998.244C71.1214 998.71 70.6925 999.321 70.4141 1000.08C70.1357 1000.83 69.9964 1001.65 69.9964 1002.52C69.9964 1003.4 70.1357 1004.21 70.4141 1004.96C70.6925 1005.71 71.1214 1006.32 71.701 1006.78C72.2805 1007.24 73.0192 1007.47 73.9169 1007.47ZM82.919 1009V995.909H84.8622V997.886H84.9986C85.2372 997.239 85.669 996.713 86.294 996.31C86.919 995.906 87.6236 995.705 88.4077 995.705C88.5554 995.705 88.7401 995.707 88.9616 995.713C89.1832 995.719 89.3509 995.727 89.4645 995.739V997.784C89.3963 997.767 89.2401 997.741 88.9957 997.707C88.7571 997.668 88.5043 997.648 88.2372 997.648C87.6009 997.648 87.0327 997.781 86.5327 998.048C86.0384 998.31 85.6463 998.673 85.3565 999.139C85.0724 999.599 84.9304 1000.12 84.9304 1000.72V1009H82.919ZM91.8487 1009V995.909H93.7919V997.886H93.9283C94.1669 997.239 94.5987 996.713 95.2237 996.31C95.8487 995.906 96.5533 995.705 97.3374 995.705C97.4851 995.705 97.6697 995.707 97.8913 995.713C98.1129 995.719 98.2805 995.727 98.3942 995.739V997.784C98.326 997.767 98.1697 997.741 97.9254 997.707C97.6868 997.668 97.4339 997.648 97.1669 997.648C96.5305 997.648 95.9624 997.781 95.4624 998.048C94.968 998.31 94.576 998.673 94.2862 999.139C94.0021 999.599 93.8601 1000.12 93.8601 1000.72V1009H91.8487ZM105.698 1009.27C104.516 1009.27 103.479 1008.99 102.587 1008.43C101.701 1007.87 101.008 1007.08 100.508 1006.07C100.013 1005.06 99.7663 1003.87 99.7663 1002.52C99.7663 1001.16 100.013 999.969 100.508 998.952C101.008 997.935 101.701 997.145 102.587 996.582C103.479 996.02 104.516 995.739 105.698 995.739C106.88 995.739 107.914 996.02 108.8 996.582C109.692 997.145 110.386 997.935 110.88 998.952C111.38 999.969 111.63 1001.16 111.63 1002.52C111.63 1003.87 111.38 1005.06 110.88 1006.07C110.386 1007.08 109.692 1007.87 108.8 1008.43C107.914 1008.99 106.88 1009.27 105.698 1009.27ZM105.698 1007.47C106.596 1007.47 107.335 1007.24 107.914 1006.78C108.494 1006.32 108.923 1005.71 109.201 1004.96C109.479 1004.21 109.619 1003.4 109.619 1002.52C109.619 1001.65 109.479 1000.83 109.201 1000.08C108.923 999.321 108.494 998.71 107.914 998.244C107.335 997.778 106.596 997.545 105.698 997.545C104.8 997.545 104.062 997.778 103.482 998.244C102.903 998.71 102.474 999.321 102.195 1000.08C101.917 1000.83 101.778 1001.65 101.778 1002.52C101.778 1003.4 101.917 1004.21 102.195 1004.96C102.474 1005.71 102.903 1006.32 103.482 1006.78C104.062 1007.24 104.8 1007.47 105.698 1007.47ZM117.221 1009L113.232 995.909H115.346L118.175 1005.93H118.312L121.107 995.909H123.255L126.016 1005.9H126.153L128.982 995.909H131.096L127.107 1009H125.13L122.266 998.943H122.062L119.198 1009H117.221ZM136.414 991.545L136.244 1004.09H134.266L134.096 991.545H136.414ZM135.255 1009.14C134.835 1009.14 134.474 1008.99 134.173 1008.68C133.871 1008.38 133.721 1008.02 133.721 1007.6C133.721 1007.18 133.871 1006.82 134.173 1006.52C134.474 1006.22 134.835 1006.07 135.255 1006.07C135.675 1006.07 136.036 1006.22 136.337 1006.52C136.638 1006.82 136.789 1007.18 136.789 1007.6C136.789 1007.88 136.718 1008.14 136.576 1008.37C136.44 1008.6 136.255 1008.79 136.022 1008.93C135.795 1009.07 135.539 1009.14 135.255 1009.14Z" fill="white"/>
<path d="M172.116 383.455V430H162.276V392.795H162.003L151.344 399.477V390.75L162.866 383.455H172.116ZM191.293 423.636L191.043 426.136C190.846 428.136 190.467 430.129 189.906 432.114C189.361 434.114 188.785 435.924 188.179 437.545C187.588 439.167 187.111 440.439 186.747 441.364H180.474C180.702 440.47 181.012 439.22 181.406 437.614C181.8 436.023 182.171 434.235 182.52 432.25C182.868 430.265 183.088 428.242 183.179 426.182L183.293 423.636H191.293ZM214.491 383.455V430H204.651V392.795H204.378L193.719 399.477V390.75L205.241 383.455H214.491ZM243.804 431.023C239.895 431.008 236.531 430.045 233.713 428.136C230.91 426.227 228.751 423.462 227.236 419.841C225.736 416.22 224.993 411.864 225.009 406.773C225.009 401.697 225.759 397.371 227.259 393.795C228.774 390.22 230.933 387.5 233.736 385.636C236.554 383.758 239.91 382.818 243.804 382.818C247.698 382.818 251.046 383.758 253.849 385.636C256.668 387.515 258.834 390.242 260.349 393.818C261.865 397.379 262.615 401.697 262.599 406.773C262.599 411.879 261.842 416.242 260.327 419.864C258.827 423.485 256.675 426.25 253.872 428.159C251.069 430.068 247.713 431.023 243.804 431.023ZM243.804 422.864C246.471 422.864 248.599 421.523 250.19 418.841C251.781 416.159 252.569 412.136 252.554 406.773C252.554 403.242 252.19 400.303 251.463 397.955C250.751 395.606 249.736 393.841 248.418 392.659C247.115 391.477 245.577 390.886 243.804 390.886C241.152 390.886 239.031 392.212 237.44 394.864C235.849 397.515 235.046 401.485 235.031 406.773C235.031 410.348 235.387 413.333 236.099 415.727C236.827 418.106 237.849 419.894 239.168 421.091C240.486 422.273 242.031 422.864 243.804 422.864ZM287.866 431.023C283.957 431.008 280.594 430.045 277.776 428.136C274.973 426.227 272.813 423.462 271.298 419.841C269.798 416.22 269.056 411.864 269.071 406.773C269.071 401.697 269.821 397.371 271.321 393.795C272.836 390.22 274.995 387.5 277.798 385.636C280.616 383.758 283.973 382.818 287.866 382.818C291.76 382.818 295.109 383.758 297.912 385.636C300.73 387.515 302.897 390.242 304.412 393.818C305.927 397.379 306.677 401.697 306.662 406.773C306.662 411.879 305.904 416.242 304.389 419.864C302.889 423.485 300.738 426.25 297.935 428.159C295.132 430.068 291.776 431.023 287.866 431.023ZM287.866 422.864C290.533 422.864 292.662 421.523 294.253 418.841C295.844 416.159 296.632 412.136 296.616 406.773C296.616 403.242 296.253 400.303 295.526 397.955C294.813 395.606 293.798 393.841 292.48 392.659C291.177 391.477 289.639 390.886 287.866 390.886C285.215 390.886 283.094 392.212 281.503 394.864C279.912 397.515 279.109 401.485 279.094 406.773C279.094 410.348 279.45 413.333 280.162 415.727C280.889 418.106 281.912 419.894 283.23 421.091C284.548 422.273 286.094 422.864 287.866 422.864ZM322.418 423.636L322.168 426.136C321.971 428.136 321.592 430.129 321.031 432.114C320.486 434.114 319.91 435.924 319.304 437.545C318.713 439.167 318.236 440.439 317.872 441.364H311.599C311.827 440.47 312.137 439.22 312.531 437.614C312.925 436.023 313.296 434.235 313.645 432.25C313.993 430.265 314.213 428.242 314.304 426.182L314.418 423.636H322.418ZM330.474 421.818V414.068L349.906 383.455H356.588V394.182H352.634L340.384 413.568V413.932H367.997V421.818H330.474ZM352.815 430V419.455L352.997 416.023V383.455H362.224V430H352.815ZM392.804 431.023C388.895 431.008 385.531 430.045 382.713 428.136C379.91 426.227 377.751 423.462 376.236 419.841C374.736 416.22 373.993 411.864 374.009 406.773C374.009 401.697 374.759 397.371 376.259 393.795C377.774 390.22 379.933 387.5 382.736 385.636C385.554 383.758 388.91 382.818 392.804 382.818C396.698 382.818 400.046 383.758 402.849 385.636C405.668 387.515 407.834 390.242 409.349 393.818C410.865 397.379 411.615 401.697 411.599 406.773C411.599 411.879 410.842 416.242 409.327 419.864C407.827 423.485 405.675 426.25 402.872 428.159C400.069 430.068 396.713 431.023 392.804 431.023ZM392.804 422.864C395.471 422.864 397.599 421.523 399.19 418.841C400.781 416.159 401.569 412.136 401.554 406.773C401.554 403.242 401.19 400.303 400.463 397.955C399.751 395.606 398.736 393.841 397.418 392.659C396.115 391.477 394.577 390.886 392.804 390.886C390.152 390.886 388.031 392.212 386.44 394.864C384.849 397.515 384.046 401.485 384.031 406.773C384.031 410.348 384.387 413.333 385.099 415.727C385.827 418.106 386.849 419.894 388.168 421.091C389.486 422.273 391.031 422.864 392.804 422.864ZM436.866 431.023C432.957 431.008 429.594 430.045 426.776 428.136C423.973 426.227 421.813 423.462 420.298 419.841C418.798 416.22 418.056 411.864 418.071 406.773C418.071 401.697 418.821 397.371 420.321 393.795C421.836 390.22 423.995 387.5 426.798 385.636C429.616 383.758 432.973 382.818 436.866 382.818C440.76 382.818 444.109 383.758 446.912 385.636C449.73 387.515 451.897 390.242 453.412 393.818C454.927 397.379 455.677 401.697 455.662 406.773C455.662 411.879 454.904 416.242 453.389 419.864C451.889 423.485 449.738 426.25 446.935 428.159C444.132 430.068 440.776 431.023 436.866 431.023ZM436.866 422.864C439.533 422.864 441.662 421.523 443.253 418.841C444.844 416.159 445.632 412.136 445.616 406.773C445.616 403.242 445.253 400.303 444.526 397.955C443.813 395.606 442.798 393.841 441.48 392.659C440.177 391.477 438.639 390.886 436.866 390.886C434.215 390.886 432.094 392.212 430.503 394.864C428.912 397.515 428.109 401.485 428.094 406.773C428.094 410.348 428.45 413.333 429.162 415.727C429.889 418.106 430.912 419.894 432.23 421.091C433.548 422.273 435.094 422.864 436.866 422.864Z" fill="#52FF00"/>
<g clip-path="url(#clip0_410_1537)">
<path d="M208.293 251.827H302.927V346.46H214.231C210.954 346.46 208.293 343.799 208.293 340.522V251.827Z" fill="black" stroke="#52FF00" stroke-miterlimit="10"/>
<path d="M276.756 284.232C274.492 280.072 271.278 276.877 267.118 274.65C262.958 272.42 258.011 271.306 252.284 271.306H231.061V326.981H252.507C258.163 326.981 263.058 325.871 267.192 323.655C271.326 321.436 274.521 318.248 276.778 314.088C279.031 309.928 280.159 304.959 280.159 299.181C280.159 293.402 279.023 288.392 276.756 284.232ZM263.455 308.239C262.434 310.421 260.946 311.947 258.99 312.819C257.035 313.691 254.674 314.125 251.91 314.125H246.154V284.158H251.461C254.374 284.158 256.834 284.6 258.842 285.486C260.846 286.37 262.371 287.902 263.418 290.081C264.464 292.259 264.988 295.295 264.988 299.181C264.988 303.066 264.475 306.061 263.455 308.239Z" fill="#52FF00"/>
<path d="M214.123 157.241H302.819V251.875H208.186V163.179C208.186 159.898 210.846 157.241 214.123 157.241Z" fill="#52FF00" stroke="#52FF00" stroke-miterlimit="10"/>
<path d="M231.328 188.901V176.721H279.68V188.901H263.051V232.395H247.954V188.901H231.324H231.328Z" fill="black"/>
<path d="M302.181 157.186H390.876C394.153 157.186 396.814 159.846 396.814 163.123V251.819H302.181V157.186Z" fill="black" stroke="#52FF00" stroke-miterlimit="10"/>
<path d="M349.497 233.085C344.439 233.085 339.863 231.991 335.766 229.797C331.669 227.604 328.426 224.387 326.032 220.137C323.642 215.892 322.443 210.689 322.443 204.536C322.443 198.383 323.638 193.102 326.032 188.841C328.426 184.581 331.669 181.364 335.766 179.181C339.863 177.003 344.443 175.912 349.497 175.912C354.552 175.912 359.124 177.003 363.21 179.181C367.296 181.364 370.539 184.581 372.944 188.841C375.349 193.102 376.552 198.331 376.552 204.536C376.552 210.741 375.349 215.925 372.944 220.174C370.539 224.424 367.296 227.634 363.21 229.816C359.124 231.994 354.552 233.085 349.497 233.085ZM349.497 219.933C352.014 219.933 354.125 219.343 355.832 218.159C357.539 216.975 358.827 215.239 359.699 212.945C360.571 210.655 361.006 207.85 361.006 204.539C361.006 201.229 360.568 198.379 359.699 196.074C358.827 193.77 357.539 192.026 355.832 190.842C354.125 189.658 352.014 189.068 349.497 189.068C346.981 189.068 344.907 189.658 343.2 190.842C341.493 192.026 340.197 193.77 339.314 196.074C338.431 198.379 337.989 201.199 337.989 204.539C337.989 207.879 338.431 210.655 339.314 212.945C340.197 215.239 341.493 216.975 343.2 218.159C344.907 219.343 347.004 219.933 349.497 219.933Z" fill="#52FF00"/>
<path d="M302.181 251.819H396.814V340.515C396.814 343.792 394.153 346.453 390.876 346.453H302.181V251.819Z" fill="#52FF00" stroke="#52FF00" stroke-miterlimit="10"/>
<path d="M349.497 327.719C344.439 327.719 339.863 326.624 335.766 324.431C331.669 322.238 328.426 319.02 326.032 314.771C323.642 310.525 322.443 305.322 322.443 299.169C322.443 293.016 323.638 287.735 326.032 283.475C328.426 279.215 331.669 275.997 335.766 273.815C339.863 271.636 344.443 270.545 349.497 270.545C354.552 270.545 359.124 271.636 363.21 273.815C367.296 275.997 370.539 279.215 372.944 283.475C375.349 287.735 376.552 292.964 376.552 299.169C376.552 305.374 375.349 310.559 372.944 314.808C370.539 319.057 367.296 322.267 363.21 324.449C359.124 326.628 354.552 327.719 349.497 327.719ZM349.497 314.567C352.014 314.567 354.125 313.977 355.832 312.793C357.539 311.609 358.827 309.872 359.699 307.579C360.571 305.289 361.006 302.483 361.006 299.173C361.006 295.863 360.568 293.013 359.699 290.708C358.827 288.403 357.539 286.659 355.832 285.475C354.125 284.291 352.014 283.701 349.497 283.701C346.981 283.701 344.907 284.291 343.2 285.475C341.493 286.659 340.197 288.403 339.314 290.708C338.431 293.013 337.989 295.833 337.989 299.173C337.989 302.513 338.431 305.289 339.314 307.579C340.197 309.872 341.493 311.609 343.2 312.793C344.907 313.977 347.004 314.567 349.497 314.567Z" fill="black"/>
</g>
<defs>
<clipPath id="clip0_410_1537">
<rect width="189" height="189.646" fill="white" transform="translate(208 157)"/>
</clipPath>
</defs>
</svg>
